<svg
  xmlns="http://www.w3.org/2000/svg"
  viewBox="0 0 30 13"
  preserveAspectRatio="xMinYMin meet">
  <style>.cls-1{fill:#f0e6be;}</style>
  <path class="cls-1" d="M9.39,7.32H5.15c-.14,0-.21-.08-.21-.26s0-.11,0-.15,0-.2,0-.32a1.94,1.94,0,0,1,0-.22s0-.08,0-.09a.16.16,0,0,1,.11,0H9.62a.49.49,0,0,1,.2,0,.1.1,0,0,1,.06.1A3.42,3.42,0,0,1,9.54,7.7a5.29,5.29,0,0,1-.89,1.41,4.42,4.42,0,0,1-1.56,1.18,4.56,4.56,0,0,1-1.92.41A5,5,0,0,1,1.46,9.24,5.09,5.09,0,0,1,0,5.5,5.79,5.79,0,0,1,.55,3,5.08,5.08,0,0,1,2.12,1,4.82,4.82,0,0,1,3.55.26,5.39,5.39,0,0,1,5.21,0,4.76,4.76,0,0,1,6.88.29a4.12,4.12,0,0,1,1.37.84,5.34,5.34,0,0,1,.42.46.67.67,0,0,1,.16.3A.22.22,0,0,1,8.78,2a.15.15,0,0,1-.1,0S8.57,2,8.49,1.86a3,3,0,0,0-.24-.32A3.64,3.64,0,0,0,7,.63,3.66,3.66,0,0,0,5.42.29,3.33,3.33,0,0,0,2.56,1.6a6.43,6.43,0,0,0-1,3.86,6.1,6.1,0,0,0,.93,3.66,3.16,3.16,0,0,0,2.7,1.27,4.1,4.1,0,0,0,2.51-.81A4.84,4.84,0,0,0,9.39,7.32Z"/>
  <path class="cls-1" d="M15.13,10.61a3.41,3.41,0,0,1-.47,2,1.56,1.56,0,0,1-1.38.67.3.3,0,0,1-.18,0,.12.12,0,0,1,0-.1c0-.07.07-.11.22-.14a1.82,1.82,0,0,0,.35-.11.79.79,0,0,0,.42-.4,3.16,3.16,0,0,0,.12-1.09V9.9a3,3,0,0,1-.79.51,2,2,0,0,1-.84.19,1.26,1.26,0,0,1-1-.37,1.76,1.76,0,0,1-.32-1.17V7.38c0-.22,0-.39,0-.52s0-.27,0-.39h1l0,.38V9.63a.79.79,0,0,0,.13.5.46.46,0,0,0,.4.17,1.61,1.61,0,0,0,.72-.19,3,3,0,0,0,.74-.55V7.38c0-.22,0-.39,0-.52s0-.27,0-.39h1c0,.12,0,.25,0,.38s0,.3,0,.51v3.25Z"/>
  <path class="cls-1" d="M17.68,11.81v.39c0,.2,0,.37,0,.5s0,.26,0,.39h-1l0-.61c0-.21,0-.43,0-.67v-4c0-.25,0-.48,0-.68l0-.62h1c0,.07,0,.13,0,.18s0,.1,0,.14a2,2,0,0,1,.61-.34,2.1,2.1,0,0,1,.7-.11,1.72,1.72,0,0,1,1.33.57,2.08,2.08,0,0,1,.53,1.46A2.32,2.32,0,0,1,20.3,10a1.8,1.8,0,0,1-1.41.63,2,2,0,0,1-.65-.11,1.71,1.71,0,0,1-.56-.31Zm0-2a1.48,1.48,0,0,0,.53.39,1.79,1.79,0,0,0,.68.12,1.45,1.45,0,0,0,1.16-.54,2,2,0,0,0,.46-1.37,1.84,1.84,0,0,0-.43-1.27A1.4,1.4,0,0,0,19,6.64a1.75,1.75,0,0,0-.7.13,2,2,0,0,0-.59.41Z"/>
  <path class="cls-1" d="M24.56,9.38a1.14,1.14,0,0,1-.45.91,1.72,1.72,0,0,1-1.12.37,1.79,1.79,0,0,1-1-.28c-.28-.18-.43-.35-.43-.51a.16.16,0,0,1,0-.11.14.14,0,0,1,.1,0,1.9,1.9,0,0,0,1.23.65,1.47,1.47,0,0,0,.71-.15A.44.44,0,0,0,24,9.83a.55.55,0,0,0-.2-.36,10.35,10.35,0,0,0-.86-.67l-.33-.22c-.58-.4-.88-.77-.88-1.12a1,1,0,0,1,.42-.82,1.64,1.64,0,0,1,1-.34,1.92,1.92,0,0,1,.81.17c.25.12.37.23.37.33a.17.17,0,0,1-.05.12.1.1,0,0,1-.1,0,1.44,1.44,0,0,1-.33-.19,1.26,1.26,0,0,0-.66-.18,1.22,1.22,0,0,0-.58.12A.36.36,0,0,0,22.4,7c0,.11.23.33.68.67l.2.14.24.17C24.21,8.52,24.56,9,24.56,9.38Z"/>
  <path class="cls-1" d="M29.67,10.61a3.49,3.49,0,0,1-.47,2,1.59,1.59,0,0,1-1.39.67.25.25,0,0,1-.17,0,.11.11,0,0,1-.06-.1c0-.07.07-.11.22-.14a2.22,2.22,0,0,0,.36-.11.8.8,0,0,0,.41-.4,3.16,3.16,0,0,0,.12-1.09V9.9a3,3,0,0,1-.79.51,2,2,0,0,1-.84.19,1.26,1.26,0,0,1-1-.37,1.76,1.76,0,0,1-.32-1.17V6.86q0-.21,0-.39h1c0,.12,0,.25,0,.38s0,.3,0,.51V9.63a.85.85,0,0,0,.13.5.47.47,0,0,0,.4.17,1.55,1.55,0,0,0,.72-.19,2.84,2.84,0,0,0,.74-.55V7.38c0-.22,0-.39,0-.52s0-.27,0-.39h1l0,.38v3.76Z"/>
</svg>