<svg
  xmlns="http://www.w3.org/2000/svg"
  viewBox="0 0 30 11"
  preserveAspectRatio="xMinYMin meet">
<style>.cls-1{fill:#be9650;}</style>
      <path class="cls-1" d="M.71,10.29l-.17,0H.39L.27,10.2a.36.36,0,0,0-.12-.08A.33.33,0,0,1,0,9.79c0-.15.14-.29.42-.43a3.1,3.1,0,0,0,.46-.23A.3.3,0,0,1,1.1,9,.38.38,0,0,0,1.27,9a1.08,1.08,0,0,1,.32-.14l.24-.14.17,0a1.2,1.2,0,0,1,.3-.18h.11s0-.06.1-.1l0,0h.11s.06-.07.13-.1A.56.56,0,0,0,3,8.16l.54-.22h.17A.58.58,0,0,1,4,7.75s0,0,.1-.11a2,2,0,0,0,.24-.21l.14-.14,0-.09L4.7,7A.75.75,0,0,1,5,6.68h0s0,0,0-.06A.58.58,0,0,0,5,6.5l.07-.14L5,6.16s0-.07-.32-.31l-.54-.24,0-.11H3.8L3.47,5.4h0l-.28-.07A.31.31,0,0,1,3,5.25a.8.8,0,0,1-.22-.11l-.29.07V5.14l-.11,0h0l0-.09-.1.06L1.9,5l-.22,0a.64.64,0,0,1-.29-.1l-.15-.07h0l-.05-.06H1a.26.26,0,0,1-.18-.1L.7,4.49a.6.6,0,0,1-.22-.25A.76.76,0,0,1,.37,3.9l0-.27a1.58,1.58,0,0,1,.4-.82.44.44,0,0,1,.25-.29,2.45,2.45,0,0,1,.26-.34A.76.76,0,0,1,1.52,2a.73.73,0,0,0,.15-.11l.1,0a1.34,1.34,0,0,1,.32-.3,2.43,2.43,0,0,1,.49-.31l.21-.1A1.51,1.51,0,0,1,3.14,1c0-.14.14-.19.24-.19l.15-.1.26,0,0,0A.36.36,0,0,1,4.05.53L4.81.29h.11A.59.59,0,0,1,5.3.1a.26.26,0,0,1,.16.08L5.54.12h.25L6,.07H6a1,1,0,0,1,.36.07A.2.2,0,0,1,6.6,0h.06l.1.09h0s.06,0,.15.06A.24.24,0,0,1,7.08.09a.33.33,0,0,1,.25.1h0a.2.2,0,0,1,.1,0c.09,0,.13.06.17.12l.11,0h0l.08.08A.63.63,0,0,1,8.05.5c.1-.07.12-.07.14-.07s.15,0,.2.19a.17.17,0,0,0,.08.14A.32.32,0,0,1,8.61,1a.32.32,0,0,1,.16.28l.11.3,0,.17c.05.06.06.08.06.1l0,.27,0,.24a.56.56,0,0,1-.23.45l-.14.07c-.09.06-.12.07-.16.07a.34.34,0,0,1-.31-.13A.3.3,0,0,0,8,2.69.23.23,0,0,1,7.9,2.5a.51.51,0,0,1,.25-.39C8.24,2,8.21,2,8.21,2a1.22,1.22,0,0,1-.14-.16.4.4,0,0,0-.13-.13.65.65,0,0,1-.15-.18h0l-.09,0-.19,0a2.08,2.08,0,0,1-.57-.15H6.83l-.37-.05a.53.53,0,0,1-.25,0l-.41.06H5.59a2.7,2.7,0,0,1-.31.11L5,1.49s0,0-.12.06a1.61,1.61,0,0,1-.28.1.19.19,0,0,1-.12.05l-.12,0L3.84,2l-.19-.06-.1,0,0,.14-.16.16-.09,0H3.22A.73.73,0,0,1,3,2.37a.26.26,0,0,0-.11,0s0,0-.13.06-.05,0-.07.07-.15.16-.21.16l-.08,0,0,.07a.67.67,0,0,1-.22.09A.35.35,0,0,1,2,3l-.16.12a.31.31,0,0,0-.09.12.39.39,0,0,1-.15.16s-.05,0-.08.13v0l-.08.08a.36.36,0,0,0-.14.24s0,0,.09.08a.74.74,0,0,1,.23.11.68.68,0,0,1,.25,0l.27.12v0a.25.25,0,0,1,.15,0,.29.29,0,0,1,.19.08h0l.11.13v-.1a.18.18,0,0,1,.13-.06s0,0,.24.08l.11,0c.1,0,.14,0,.16.07l.07,0h0l.13,0a.3.3,0,0,1,.14,0l.09,0A.46.46,0,0,1,4,4.52h.2l.24,0,.14.11a.21.21,0,0,1,.12,0,.94.94,0,0,1,.36.1l.18,0h0c.18,0,.24.11.24.2V5h.13a.69.69,0,0,1,.47.21.84.84,0,0,1,.35.56.49.49,0,0,0,0,.16V6l0,.12,0,.09,0,.12v.12l-.07.08,0,0a.26.26,0,0,1-.07.21h0l-.09.15s0,0,0,0l.08,0,.62-.31c.71-.35.77-.35.81-.35a.19.19,0,0,1,.21.21.4.4,0,0,1-.11.22.39.39,0,0,1-.33.41l-.09.1,0,0H7.22a.4.4,0,0,1-.37.19,1,1,0,0,1-.62.28A.53.53,0,0,1,5.84,8L5.76,8a.63.63,0,0,1-.25.07l-.09.11a.74.74,0,0,0-.26.15.61.61,0,0,1-.27.16l-.14,0s-.15.09-.67.46h0L4,9c-.2.1-.26.15-.27.17l-.19.16a.49.49,0,0,0-.36.18s0,.06-.33.14a2,2,0,0,0-.49.23L1.92,10l-.35.08-.45.1-.35.08H.71ZM2.2,9.17A.41.41,0,0,1,2,9.22a.44.44,0,0,0-.17.08l.33-.09.07,0Z"/><path class="cls-1" d="M4.56,7.37l.05-.14L4.78,7c.09-.15.16-.24.22-.26a.36.36,0,0,1,0-.11.39.39,0,0,0,0-.15l.06-.11s0,0,0,0,0,0,0-.08l0-.14S5,6,4.73,5.77H4.68l-.47-.24,0-.06,0,0-.07,0h0l-.22-.07L3.47,5.3h0l-.26-.06c-.07,0-.12,0-.13-.06l-.11-.06a.33.33,0,0,1-.12-.06.13.13,0,0,0-.1,0l-.17,0L2.36,5s0-.07,0-.07L2.13,5l-.2-.09-.23,0a.59.59,0,0,1-.25-.08.78.78,0,0,0-.18-.08l0,0-.07,0H1a.2.2,0,0,1-.11-.07.84.84,0,0,0-.17-.13.52.52,0,0,1-.19-.22.58.58,0,0,1-.09-.3l0,0,0-.22a1.44,1.44,0,0,1,.38-.77.37.37,0,0,1,.21-.27l0-.1a1.68,1.68,0,0,0,.27-.27,1,1,0,0,1,.19-.17A.74.74,0,0,0,1.74,2l.12-.05s.09-.14.29-.29a1.91,1.91,0,0,1,.47-.3l.22-.11a1.68,1.68,0,0,1,.33-.1c0-.12.11-.19.21-.19h.09L3.6.78h.18L3.85.71a.25.25,0,0,1,.2-.08L4.84.38H5A.21.21,0,0,0,5.08.3.27.27,0,0,1,5.3.2l.09.06s0,0,0,0L5.58.22h.2L6,.16a.74.74,0,0,1,.42.12V.22c0-.08,0-.12.13-.12s.06,0,.06,0l.08,0h0L7,.26A.31.31,0,0,1,7.08.19a.23.23,0,0,1,.2.11l.11,0L7.46.23s.06,0,.1.11h.2l.06,0,.07.07L8,.54A.18.18,0,0,0,8,.61L8.19.53s.08,0,.1.12A.26.26,0,0,0,8.4.83a.27.27,0,0,1,.12.2.24.24,0,0,1,.14.22l.13.33,0,.12a.34.34,0,0,1,.05.12l0,.26,0,.26a.44.44,0,0,1-.19.36.33.33,0,0,0-.13.06l-.1.06a.25.25,0,0,1-.22-.08.81.81,0,0,0-.11-.13A.13.13,0,0,1,8,2.5a.39.39,0,0,1,.2-.31.15.15,0,0,0,.13-.06.27.27,0,0,0-.06-.2.69.69,0,0,1-.13-.15A.67.67,0,0,0,8,1.63a.37.37,0,0,1-.13-.15q0-.09-.09-.09l-.09,0-.19,0A1.85,1.85,0,0,1,7,1.22H6.83l-.36-.05a.78.78,0,0,1-.26,0l-.43.07-.18,0-.36.12H5l-.17.07a1.49,1.49,0,0,1-.26.1l-.06,0s0,0,0,0l-.11,0-.58.3L3.7,1.82l-.12-.05a.08.08,0,0,0-.09.09l0,.13-.11.09-.06,0H3.22a.21.21,0,0,0-.15.07A.25.25,0,0,1,3,2.27a.29.29,0,0,0-.15.06s0,0-.11,0a.25.25,0,0,0-.14.13c0,.07-.07.1-.11.1l-.13,0-.07.14-.16,0a1,1,0,0,1-.17.18l-.17.13a.79.79,0,0,0-.12.15.29.29,0,0,1-.1.12.38.38,0,0,0-.13.18l-.07.07a.41.41,0,0,0-.16.3c0,.08.05.14.16.17l.2.09a.12.12,0,0,0,.11,0,.33.33,0,0,1,.15,0L2,4.33c0,.07,0,.11.06.11s0,0,.05-.05a.14.14,0,0,1,.12-.06c.06,0,.11,0,.17.11l0,0h0l.09,0h0l.08,0,0,0,.2.07h0l.1,0,.11,0,.09.06s0,0,0,0l.08,0a.19.19,0,0,1,.1,0,.16.16,0,0,1,.11.07l.12,0a.45.45,0,0,1,.21.1l.12,0h.14l.22,0a.66.66,0,0,0,.19.15.08.08,0,0,1,.09-.07A.92.92,0,0,1,5,4.84H5l.06,0,.13,0c.09,0,.14,0,.14.1a1,1,0,0,1,0,.21l0,0s0,0,.07,0l.1-.07,0,0A.86.86,0,0,1,6,5.27a.78.78,0,0,1,.31.5.58.58,0,0,0,0,.2l0,.08v.11l0,.1,0,.1a.1.1,0,0,1,0,0l0,0,0,.11v0s0,0,0,.08a.24.24,0,0,0-.06.09l0,.08A.22.22,0,0,0,6.06,7S6,7,5.93,7.1s-.11.09-.11.12,0,0,0,0A.27.27,0,0,0,6,7.18a.5.5,0,0,1,.13-.09A.7.7,0,0,0,6.3,7l.62-.3a5.14,5.14,0,0,1,.76-.34.1.1,0,0,1,.11.11.37.37,0,0,1-.09.16c0,.21-.1.34-.27.37a.53.53,0,0,0-.15.15H7.22a.47.47,0,0,1-.37.19h0a.89.89,0,0,1-.59.28.61.61,0,0,1-.38.24l-.1,0A.85.85,0,0,1,5.51,8L5.45,8l-.09.07a.61.61,0,0,0-.27.15.76.76,0,0,1-.22.15l-.16,0c-.06,0-.29.19-.69.47l-.08,0a.94.94,0,0,0-.33.2.64.64,0,0,1-.15.13h0a.53.53,0,0,0-.35.21.84.84,0,0,1-.29.11,1.87,1.87,0,0,0-.52.24l-.38.11a2.13,2.13,0,0,1-.34.08l-.46.1-.34.09a.59.59,0,0,0-.21,0H.42l-.08-.05A.49.49,0,0,0,.19,10Q.1,10,.1,9.79t.36-.33l.48-.24a.22.22,0,0,1,.18-.09.58.58,0,0,0,.22-.08.67.67,0,0,1,.28-.12l.26-.15H2s.08,0,.14-.08a.93.93,0,0,1,.19-.11h.08l0,0,.12-.09h.08l.17-.11A.52.52,0,0,0,3,8.23L3.53,8h.11S3.7,8,3.75,8A.65.65,0,0,1,4,7.85a.52.52,0,0,1,.13-.13,2.18,2.18,0,0,0,.25-.22ZM2.28,9.08l-.1,0A.32.32,0,0,1,2,9.12a.78.78,0,0,0-.27.13,3.45,3.45,0,0,1-.43.23c-.16.07-.25.12-.25.14a2.48,2.48,0,0,0,.67-.18L2.2,9.3l.13-.05a.51.51,0,0,1,.14-.08l.1-.08L2.72,9c.07,0,.11,0,.11-.08s0,0,0,0A.76.76,0,0,0,2.43,9Z"/><path class="cls-1" d="M8.16,9.24a.49.49,0,0,1-.38-.16.6.6,0,0,1-.18-.33,1.72,1.72,0,0,0,0-.26.76.76,0,0,1,0-.21,1.54,1.54,0,0,1,0-.16.68.68,0,0,0,0-.19c0-.1,0-.14.05-.17l0-.06s0-.07.1-.17a.24.24,0,0,0,.05-.14.42.42,0,0,1,.08-.18.88.88,0,0,0,.07-.13A.47.47,0,0,1,8,6.9H8s0-.05,0-.11l0,0-.14.09a1.77,1.77,0,0,0-.28.21.32.32,0,0,1-.25.16A.36.36,0,0,1,6.9,6.9.31.31,0,0,1,7,6.62a.38.38,0,0,1,.29-.21s.12,0,.25-.27l0,0h.06A.36.36,0,0,0,7.83,6l.16,0,0-.1a.49.49,0,0,1,.21-.16.31.31,0,0,0,.13-.16,1.11,1.11,0,0,1,.55-.4c.27.1.4.21.44.34A1.66,1.66,0,0,1,9.42,6a.63.63,0,0,1-.07.27l-.09.19a1.52,1.52,0,0,1-.13.26A.71.71,0,0,0,9,6.84a.74.74,0,0,1-.14.22.38.38,0,0,0-.09.15,2.92,2.92,0,0,1-.18.36A2.05,2.05,0,0,0,8.48,8h0l.07-.08.11,0c0-.09,0-.11.16-.16v0s0-.15.21-.18a.26.26,0,0,0,.14-.06h0s0-.09.08-.13a.31.31,0,0,1,.24-.2.52.52,0,0,1,.3-.42c0-.12,0-.17.06-.2A.32.32,0,0,1,10,6.39l.1-.15.05-.13A.27.27,0,0,1,10.22,6l.07-.13a.61.61,0,0,1,.12-.18l.06-.1a.34.34,0,0,1,.31-.23c.07,0,.16,0,.39.24a.91.91,0,0,1,.28.72.29.29,0,0,1-.14.29h0s0,0-.06.16a1.64,1.64,0,0,1-.14.39.7.7,0,0,0-.08.16.59.59,0,0,1,0,.35l0,.08-.08.18a1,1,0,0,0,.05.14A.22.22,0,0,1,11.15,8s0,0,.15-.08l.43-.28.06-.08.09-.06a.24.24,0,0,0,.1-.1.27.27,0,0,1,.13-.16.59.59,0,0,1,.17-.28l.17-.36a.58.58,0,0,1,.11-.19c0-.08-.08-.28-.19-.55a.64.64,0,0,1,.09-.4.33.33,0,0,1,.26-.18l.14,0,.16,0c.07,0,.14,0,.36.22a.74.74,0,0,1,.27.58.84.84,0,0,1-.07.37,1,1,0,0,0-.08.24.37.37,0,0,1-.18.27.58.58,0,0,1-.27.51l-.11.22a.47.47,0,0,1-.18.22h0s0,0-.06.11a.6.6,0,0,1-.16.22l-.2.1-.09.16a2.91,2.91,0,0,0-.31.3l-.18.06a1,1,0,0,1-.78.29.88.88,0,0,1-.57-.27.75.75,0,0,1-.29-.55l-.06-.19c0-.27,0-.47,0-.62L10,7.56a.2.2,0,0,1-.09.19l-.09.09A1.17,1.17,0,0,1,9.65,8a2.89,2.89,0,0,1-.27.41s0,.07-.1.11L9.2,8.6A3.91,3.91,0,0,1,8.68,9C8.29,9.22,8.21,9.24,8.16,9.24Z"/><path class="cls-1" d="M7.9,6,8,6l.11-.13a.42.42,0,0,1,.18-.13.46.46,0,0,0,.18-.22A1.06,1.06,0,0,1,9,5.2c.18.08.29.17.32.27A1.45,1.45,0,0,1,9.32,6a.56.56,0,0,1-.06.22,1.78,1.78,0,0,0-.1.21A.72.72,0,0,1,9,6.61a.09.09,0,0,1,0,0,.75.75,0,0,0-.08.14A.62.62,0,0,1,8.81,7a.76.76,0,0,0-.12.19,2.05,2.05,0,0,1-.17.34A2.71,2.71,0,0,0,8.37,8c0,.05,0,.07,0,.07A.16.16,0,0,0,8.5,8l.06,0h.08l.09-.07,0-.09.17-.09H9a.19.19,0,0,1,0-.08s.05-.07.13-.08a.37.37,0,0,0,.19-.09c0-.06,0-.1,0-.11a.25.25,0,0,0,.07-.09.18.18,0,0,1,.14-.1c.07,0,.1,0,.1-.08a.38.38,0,0,1,.24-.35.06.06,0,0,0,.05-.07.32.32,0,0,1,0-.15L10,6.47l.13-.18.06-.14a.22.22,0,0,1,.07-.09.61.61,0,0,0,.1-.15.52.52,0,0,1,.09-.16l.08-.12c.06-.12.13-.18.22-.18s.16.07.32.22a.77.77,0,0,1,.25.64c0,.11,0,.17-.08.2s-.1.1-.13.23A1.09,1.09,0,0,1,11,7.1l-.09.18,0,.09v0a.42.42,0,0,1-.07.26.39.39,0,0,1,0,.11l-.06.11q0,.27.09.27l.1,0,.12,0a.71.71,0,0,0,.2-.1l.43-.28.08-.09.06-.05a.23.23,0,0,0,.14-.15.18.18,0,0,1,.13-.11.57.57,0,0,1,.15-.3l.2-.37a.45.45,0,0,1,.09-.17,2,2,0,0,0-.17-.66v0a.56.56,0,0,1,.08-.27c.06-.08.11-.13.17-.13l.13,0,.18,0s.13.06.29.2a.64.64,0,0,1,.23.5.67.67,0,0,1-.07.33,1,1,0,0,0-.08.27.29.29,0,0,1-.13.19l0,0a.6.6,0,0,1-.25.48,1.86,1.86,0,0,0-.14.25.41.41,0,0,1-.13.18.5.5,0,0,0-.11.15,1.13,1.13,0,0,1-.13.19l-.18.08c-.09,0-.14.09-.14.15v.1a1.75,1.75,0,0,0-.29.25l-.14,0A1,1,0,0,1,11,9a.77.77,0,0,1-.5-.24.69.69,0,0,1-.26-.48l-.06-.22a5.84,5.84,0,0,1,0-.76s0,0,0,0,0-.08,0-.08a.23.23,0,0,0-.07.11.22.22,0,0,1-.09.1l-.1.09c0,.11,0,.17-.07.19l-.11.1a.93.93,0,0,1-.18.16,1.57,1.57,0,0,1-.27.41v0l-.06,0-.11.11a2.82,2.82,0,0,1-.5.36,1.75,1.75,0,0,1-.46.25A.42.42,0,0,1,7.85,9a.55.55,0,0,1-.15-.28,1.86,1.86,0,0,0,0-.27.54.54,0,0,1,0-.18s0-.07,0-.14a1.77,1.77,0,0,0,0-.2.2.2,0,0,1,0-.11V7.7l.07-.11a.32.32,0,0,0,.08-.2.33.33,0,0,1,.06-.13L8,7.11A.48.48,0,0,1,8.08,7a1.83,1.83,0,0,1,.06-.19.66.66,0,0,0,0-.16,0,0,0,0,0,0,0q-.09,0-.27.18l-.12.06-.29.23c-.07.09-.12.13-.18.13A.26.26,0,0,1,7,6.9c0-.1,0-.17.07-.2a.22.22,0,0,0,.09-.11s.06-.06.16-.08.2-.13.32-.32c.1,0,.16,0,.17-.05Z"/><path class="cls-1" d="M15.81,9.13A.55.55,0,0,1,15.47,9a.48.48,0,0,1-.19-.37l.11-.14h-.1a.63.63,0,0,1,0-.11c0-.12,0-.14,0-.16V8.08c0-.21,0-.27,0-.3a.41.41,0,0,0,0-.1l.06-.32a.27.27,0,0,1,.1-.17h0s0-.05,0-.13l0-.12.08-.13,0-.1a.51.51,0,0,1,.07-.22l0,0-.21,0c.06,0,0,.09-.08.12l0,0-.09.07h-.12a.57.57,0,0,1-.31.26l-.14,0a.65.65,0,0,1-.2.28.3.3,0,0,1-.2.1A.27.27,0,0,1,14,7.07l.06-.33.12-.2,0,0h.08s0,0,.06-.06l0,0,.08,0a.46.46,0,0,1,.24-.24l.09-.07L14.86,6s0,0,.13-.11a.38.38,0,0,1,.25-.14h0a1,1,0,0,1,.15-.13.49.49,0,0,0,.16-.16l0,0,.11-.06a.91.91,0,0,0,.16-.11.36.36,0,0,1,.28-.12.68.68,0,0,1,.47.23.65.65,0,0,1,.24.46l-.11.55c-.08.38-.15.59-.26.66l0,.1-.09.11,0,.12a.28.28,0,0,1-.1.2l0,.25.14,0,.05-.12.15-.08A1.57,1.57,0,0,1,17,7.53l.83-.67c.14-.14.24-.21.34-.21a.2.2,0,0,1,.2.23.56.56,0,0,1-.07.3.91.91,0,0,0-.09.22.54.54,0,0,1-.14.24.32.32,0,0,0-.08.09s-.07.1-.24.22a1.74,1.74,0,0,0-.28.24,1.52,1.52,0,0,1-.22.19L17,8.59c0,.08-.07.1-.18.14a1,1,0,0,0-.17.1l-.13.08a.49.49,0,0,1-.17.05c-.13.09-.19.15-.27.15l-.11,0-.1,0Zm1.55-5.37a.47.47,0,0,1-.3-.16.51.51,0,0,1-.18-.3l0-.26c0-.39.16-.49.29-.51l.26-.08a.48.48,0,0,1,.36.25.69.69,0,0,1,.15.39v0l0,.08a.78.78,0,0,0,0,.14.41.41,0,0,1-.16.31A.52.52,0,0,1,17.36,3.76Z"/><path class="cls-1" d="M14.15,6.71l.1-.1h0s.08,0,.14-.1l.07,0a.53.53,0,0,1,.22-.23l.11-.09.07,0A.57.57,0,0,0,15.06,6a.3.3,0,0,1,.18-.11h.1a.48.48,0,0,1,.16-.16.58.58,0,0,0,.19-.19l.08,0A.52.52,0,0,0,16,5.35a.32.32,0,0,1,.21-.08.61.61,0,0,1,.4.2.55.55,0,0,1,.21.39l-.11.53c-.08.39-.16.6-.25.61l0,.15c-.06,0-.09.08-.09.11l0,.16a.22.22,0,0,1-.07.1s0,0,0,0v.29a.14.14,0,0,1-.09.12l0,0a.26.26,0,0,1,.18,0l.1,0,.15-.15a.4.4,0,0,0,.12-.07A2.72,2.72,0,0,1,17,7.62l.86-.68c.12-.13.21-.19.27-.19s.09,0,.09.13a.49.49,0,0,1-.05.25,1.33,1.33,0,0,0-.1.24.41.41,0,0,1-.11.19.53.53,0,0,0-.1.12.82.82,0,0,1-.21.19,2,2,0,0,0-.3.25,1,1,0,0,1-.2.18l-.28.22,0,.06-.12.06a.86.86,0,0,0-.19.11l-.12.07a.33.33,0,0,1-.13,0,.19.19,0,0,0-.15.08S16.07,9,16,9l-.1,0-.13,0a.43.43,0,0,1-.27-.14.38.38,0,0,1-.16-.29V8.46a.51.51,0,0,0,0-.14l0-.13,0-.09,0,0a.59.59,0,0,1,0-.24.33.33,0,0,0,0-.13c0-.06,0-.1,0-.14l0-.17a.36.36,0,0,1,.06-.11,1.84,1.84,0,0,1,.06-.18l0-.13.07-.09a.34.34,0,0,0,.06-.15.49.49,0,0,1,.07-.19.4.4,0,0,0,.06-.13.07.07,0,0,0-.08-.08.6.6,0,0,0-.16.11l-.12,0s0,0-.07.07,0,0-.06,0a.17.17,0,0,0-.11.1h-.06l-.08,0h0s-.07,0-.08.15a.35.35,0,0,1-.19.15l-.14,0a.22.22,0,0,0-.11.12.36.36,0,0,1-.13.18.27.27,0,0,1-.13.07q-.18,0-.18-.21l.05-.32ZM17,3.29l0-.26V3c0-.21.07-.33.21-.35a1.25,1.25,0,0,0,.27-.09.49.49,0,0,1,.25.22.63.63,0,0,1,.13.33.39.39,0,0,1,0,.06.36.36,0,0,0,0,.18.29.29,0,0,1-.13.23.37.37,0,0,1-.26.1.36.36,0,0,1-.23-.13A.47.47,0,0,1,17,3.29Z"/><path class="cls-1" d="M23.13,9.11l-.1,0a.37.37,0,0,1-.21-.07L22.67,9c-.09,0-.18-.12-.29-.3a1,1,0,0,1-.17-.32.73.73,0,0,1-.06-.19s0,0,.07-.18a.36.36,0,0,1-.08-.25.31.31,0,0,0,0-.12l0-.06,0-.05c0-.1,0-.14,0-.17l0-.34,0-.15,0-.18h0l-.1,0-.26.14a.29.29,0,0,1-.21.08s0,.05-.12.07a.5.5,0,0,1-.13.11h0s0,.05-.26.24a5.57,5.57,0,0,0-.43.39c-.19.18-.28.21-.34.22a.27.27,0,0,1-.16.27L20,8.35,20,8.43l-.14-.1s0,.06,0,.12a.33.33,0,0,1-.3.19l0,0-.06.1c-.14.12-.2.16-.26.17a.18.18,0,0,1-.18.19h0l-.1,0-.1,0a.42.42,0,0,1-.22-.22.56.56,0,0,1-.1-.3c0-.57.11-.86.36-.92-.07-.08,0-.16.06-.2s.06,0,.12-.12a.47.47,0,0,1,.14-.16h.13V6.94a.83.83,0,0,1,0-.15.42.42,0,0,0-.1.13l0,.06-.18,0a1.1,1.1,0,0,1-.28.23s0,0-.09.11l0,0-.09.06s0,0-.13.1l0,0h-.08c-.08,0-.27,0-.27-.35l.15-.42a.61.61,0,0,1,.32-.36c.14-.09.26-.16.36-.24A.61.61,0,0,1,19.14,6a1,1,0,0,0,.26-.29.32.32,0,0,1,.31-.25.7.7,0,0,1,.63.32.93.93,0,0,1,.21.49v.18a1.3,1.3,0,0,1,0,.3.42.42,0,0,0-.07.16.34.34,0,0,1,.16-.2A.63.63,0,0,1,21,6.4a.53.53,0,0,0,.16-.08l.1-.13A1.12,1.12,0,0,0,21.46,6a.32.32,0,0,1,.22-.12.55.55,0,0,0,.17-.11h0l.12,0,.08,0,.27-.11a.69.69,0,0,1,.21-.06.73.73,0,0,1,.62.32,1,1,0,0,1,.21.51l0,.14,0,.16-.05.43v.1a.69.69,0,0,1-.16.53l.12.3.05.12.13-.08A.19.19,0,0,0,23.58,8l.2-.19a.19.19,0,0,1,.2-.14h0a.41.41,0,0,1,.13-.17s.05-.14.15-.2L24.66,7l.16-.14.09-.05c.09-.13.16-.17.24-.17s.2.09.2.17L25.28,7l0,.18a.38.38,0,0,1-.1.29l-.59.65-.2.12-.1.07-.26.24s0,.11-.06.14l-.17,0c0,.07-.1.17-.27.26l-.11.08-.12,0Z"/><path class="cls-1" d="M24,7.74h0l.07,0h0a.25.25,0,0,1,.1-.2.3.3,0,0,1,.15-.2l.36-.22L24.88,7l.08,0L25,6.87c0-.06.09-.09.14-.09s.09,0,.09.07l0,.14,0,.23a.37.37,0,0,1-.08.22l-.25.28-.34.36-.17.1a.4.4,0,0,0-.12.1L24,8.5a.19.19,0,0,1-.06.15h-.1l0,0a.67.67,0,0,1-.27.26l-.1.06a.1.1,0,0,1-.08,0l-.18,0L23,9a.26.26,0,0,1-.14,0,1.51,1.51,0,0,0-.18-.09.56.56,0,0,1-.23-.25,1.1,1.1,0,0,1-.16-.29.23.23,0,0,0,0-.09.27.27,0,0,1,0-.08L22.31,8h0a.43.43,0,0,0,0-.1.34.34,0,0,1,0-.18.41.41,0,0,0,0-.16.1.1,0,0,0,.05-.08.15.15,0,0,0,0-.08.31.31,0,0,1,0-.08l0-.33,0-.17V6.68c0-.09,0-.14-.12-.14a.21.21,0,0,0-.13.07l0,0a1.46,1.46,0,0,0-.25.15.3.3,0,0,1-.15,0,.35.35,0,0,1-.15.08l0,0L21.24,7s-.08.09-.24.23-.31.27-.44.39a.84.84,0,0,1-.29.21c-.06,0-.09.06-.09.17s0,.05-.11.11a.67.67,0,0,0-.14.15.34.34,0,0,0-.12-.08s-.1.07-.12.22a.24.24,0,0,1-.21.11.27.27,0,0,0-.05.11l0,0h-.06l-.09.08a.46.46,0,0,1-.14.1Q19,9,19,9a.12.12,0,0,1-.07,0,.33.33,0,0,0-.12,0c-.05,0-.1-.07-.16-.17a.51.51,0,0,1-.09-.25c0-.5.09-.78.28-.82V7.63a.12.12,0,0,1,.08-.12A.53.53,0,0,0,19,7.36a.58.58,0,0,1,.11-.13h.08s0-.05,0-.14a.11.11,0,0,1,0-.08.13.13,0,0,0,0-.1.88.88,0,0,1,.1-.21.61.61,0,0,0,.08-.17v0a.82.82,0,0,1-.23.17c-.05,0-.12.07-.2.2l-.11,0a2.26,2.26,0,0,1-.34.24s-.09.07-.14.15a.06.06,0,0,1-.05.06.7.7,0,0,0-.17.11h0c-.11,0-.16-.08-.16-.25l.14-.39a.56.56,0,0,1,.27-.31,2.38,2.38,0,0,0,.37-.24.48.48,0,0,1,.3-.12L19.19,6a.52.52,0,0,0,.3-.28c.05-.13.13-.19.22-.19a.63.63,0,0,1,.55.27,1,1,0,0,1,.19.44v.19a1,1,0,0,1,0,.26.51.51,0,0,0-.08.19s0,0,.07,0l.1,0,.15-.11c.05,0,.09-.06.09-.08A.4.4,0,0,1,21,6.49a.67.67,0,0,0,.21-.1l.06-.06.05-.1a.62.62,0,0,0,.24-.15A.35.35,0,0,1,21.7,6a.48.48,0,0,0,.22-.12l.1,0,.09,0,.08,0a.93.93,0,0,0,.19-.07l.17,0a.6.6,0,0,1,.53.28.88.88,0,0,1,.19.45v.12l0,.19v0l-.05.37V7.2a.65.65,0,0,1-.13.45.07.07,0,0,0,0,.07v.06l.14.28q.06.15.09.15l.21-.06A.25.25,0,0,0,23.67,8a1.43,1.43,0,0,0,.18-.16C23.88,7.77,23.92,7.74,24,7.74Z"/><path class="cls-1" d="M24.63,13.43a.51.51,0,0,1-.41-.27.92.92,0,0,1-.17-.52,1.73,1.73,0,0,1,.09-.65,2.34,2.34,0,0,0,.09-.24l.15-.36a2.34,2.34,0,0,1,.27-.53c.08-.11.15-.21.21-.31a.88.88,0,0,1,.24-.31h0s0-.07.25-.28a4.57,4.57,0,0,1,.49-.43l0-.07c.2-.14.23-.15.27-.15l.35-.1s.08-.09.22-.2l0,0h.09L27,9a2.26,2.26,0,0,1,.46-.13.74.74,0,0,0,.28-.08l.06-.14s.07-.14.15-.29a.85.85,0,0,1,0-.17v0L28,8h0s0,0,0-.09a.82.82,0,0,1,.11-.21l0,0c.05-.2.09-.27.15-.31l0-.06,0-.1a.83.83,0,0,1-.24.14s0,0-.09.13a.25.25,0,0,0-.13.11l0,.05-.1,0,0,0-.05.07-.17.1,0,0-.12,0v0l0,.08a.6.6,0,0,1-.26.21l0,0-.19.09a1.29,1.29,0,0,0-.19.21h0l-.18.06a.58.58,0,0,1-.32.18L26,8.86l-.13.06L25.76,9a.65.65,0,0,1-.33.09L25.12,9c-.16,0-.27-.23-.33-.62l-.13,0a.23.23,0,0,1-.26-.23.49.49,0,0,1,.28-.5l.13-.18.42-.44c.3-.31.5-.5.6-.59a3,3,0,0,1,.34-.26L26.5,6a1,1,0,0,1,.25-.15,1.63,1.63,0,0,1,.31-.14l.11,0a1.61,1.61,0,0,1,.51-.14h.11l0,0,.09,0s.06,0,.22-.13l.27-.09.2,0h.12c.1,0,.24,0,.28.3v0l.07,0a.37.37,0,0,1,.19-.09.28.28,0,0,1,.3.21,2.47,2.47,0,0,1,.09.48.92.92,0,0,1-.16.57.72.72,0,0,0-.14.23,4.9,4.9,0,0,1-.27.84l-.16.41-.08.08v.12a.63.63,0,0,0-.1.25.58.58,0,0,1-.07.22l0,0a.8.8,0,0,1,.26.24.55.55,0,0,1,.15.3,1.31,1.31,0,0,1-.08.3.75.75,0,0,1-.49.25.5.5,0,0,1-.26-.1l-.14,0,0-.07-.07,0a.4.4,0,0,1-.09.16,1.4,1.4,0,0,1-.09.19.94.94,0,0,1-.19.27.2.2,0,0,0-.16.17.63.63,0,0,1-.16.34l-.05,0,0,0a2.15,2.15,0,0,1-.43.62l-.15.05c0,.1,0,.19-.15.31s-.2.18-.25.18-.12.24-.39.47-.17.12-.18.12a.86.86,0,0,1-.42.35l-.11.1a.66.66,0,0,1-.2.14l-.17.06-.08.06A.29.29,0,0,1,24.63,13.43Zm.77-2.66a.48.48,0,0,1-.14.2.84.84,0,0,1-.21.18.22.22,0,0,0-.08.15.53.53,0,0,1-.11.25.41.41,0,0,0,0,.16l0,.13a1.94,1.94,0,0,0-.05.22l0,.19v0h.06l.37-.16h0l.11-.11a1,1,0,0,1,.26-.17.34.34,0,0,0,.13-.09.49.49,0,0,1,.14-.15v0l.07-.09.27-.26a.46.46,0,0,0,.14-.17.47.47,0,0,1,.15-.17v0l0-.06c.05,0,.08,0,.15-.19l.18-.31A1.22,1.22,0,0,0,27,9.85l0,0-.13-.05c0,.09-.15.16-.35.22a1.07,1.07,0,0,0-.33.13.41.41,0,0,1-.22.11l-.09.09a.68.68,0,0,0-.14.09.32.32,0,0,1-.19.1c0,.19-.1.27-.19.27Zm2.49-4.29-.3.15-.1.09a.5.5,0,0,1-.18.09c-.08.14-.16.16-.21.16S27,7,26.9,7s0,0-.06.08-.1.11-.16.11a.35.35,0,0,1-.22.21.18.18,0,0,0-.08.06.53.53,0,0,0-.22.17.84.84,0,0,1-.18.19l-.1.09L25.8,8a.44.44,0,0,0-.08.15l0,.09.12-.06A.64.64,0,0,0,26,8l0,0,.12,0h.19a.34.34,0,0,1,.17-.11.13.13,0,0,0,.08-.07.68.68,0,0,1,.35-.23l0-.09,0,0h.06l.06-.07a.29.29,0,0,1,.19-.12.16.16,0,0,0,.09-.07,1.16,1.16,0,0,1,.42-.38c.1-.17.18-.25.27-.27l0-.07a.24.24,0,0,1-.12,0Zm.3-.17v0A.1.1,0,0,0,28.19,6.31Z"/><path class="cls-1" d="M24.87,13.22l-.11.07a.22.22,0,0,1-.13,0,.41.41,0,0,1-.32-.22.86.86,0,0,1-.16-.47,1.5,1.5,0,0,1,.09-.61,1.38,1.38,0,0,0,.09-.27s.05-.11.14-.34a2.75,2.75,0,0,1,.27-.5c.08-.11.15-.22.21-.32l0,0a.79.79,0,0,1,.19-.23s.09-.12.25-.28a5.53,5.53,0,0,1,.48-.42L26,9.53a.71.71,0,0,1,.18-.11l.38-.11.25-.21h.06l.17,0a1.92,1.92,0,0,1,.45-.13c.2,0,.32-.08.35-.13a1.07,1.07,0,0,1,.07-.15A3,3,0,0,1,28,8.35a1.06,1.06,0,0,1,0-.18c0-.05,0-.08,0-.09s0-.05.07-.13a1.2,1.2,0,0,1,.11-.2h0l0-.12c0-.11.07-.18.11-.2l.06,0-.05-.13L28.48,7a0,0,0,0,0,0,0,1.65,1.65,0,0,1-.4.26l-.15.16a.29.29,0,0,0-.15.14l-.05,0,0,.07s0,0,0,0l-.19.11h-.07s0,0-.07.13a.5.5,0,0,1-.21.17.22.22,0,0,0-.13.07l-.05.07h-.07c-.09,0-.14,0-.14.11a.23.23,0,0,1-.07.14.24.24,0,0,0-.13,0h-.1a.34.34,0,0,1-.24.19L26,8.78l-.11,0-.16.1a.51.51,0,0,1-.26.07,1.58,1.58,0,0,0-.29-.1c-.12,0-.21-.26-.26-.67h0a.19.19,0,0,0-.11,0,.16.16,0,0,1-.09,0c-.11,0-.16,0-.16-.13a.41.41,0,0,1,.22-.41l.17-.21.42-.43.59-.59c.1-.08.21-.17.33-.25l.33-.23.21-.13.08,0a.92.92,0,0,1,.24-.11l.12,0a1.87,1.87,0,0,1,.47-.13h.1a.24.24,0,0,0,.13,0,.56.56,0,0,0,.29-.15l.23-.07.17,0h.12c.09,0,.15.07.18.22s.06.23.08.23,0,0,.08-.11l.09-.06a.26.26,0,0,1,.12-.07.18.18,0,0,1,.2.13v0l0,0c0,.22.05.35.05.41a.88.88,0,0,1-.13.51,1.28,1.28,0,0,0-.16.26A5.58,5.58,0,0,1,29,7.7s-.08.18-.16.4l-.07.07a.05.05,0,0,0,0,0V8.3a.69.69,0,0,0-.11.3,1,1,0,0,1-.1.25l.11.07a.91.91,0,0,1,.23.22.57.57,0,0,1,.13.24,2.73,2.73,0,0,1-.08.27.7.7,0,0,1-.39.18.48.48,0,0,1-.2-.08h0v0l-.13-.05-.09,0s-.06,0-.06,0a.14.14,0,0,0,0,.06l-.11.1a1,1,0,0,1-.09.2.81.81,0,0,1-.17.25c-.09,0-.16.08-.19.22a.55.55,0,0,1-.13.28l-.06,0a2.14,2.14,0,0,1-.45.67c-.09,0-.14,0-.14.06a.32.32,0,0,1,0,.08.55.55,0,0,1-.16.23c-.1.1-.15.15-.17.15l-.07,0,0,0c0,.09-.11.24-.34.44s-.2.12-.21.15a.79.79,0,0,1-.38.3L25.2,13a.48.48,0,0,1-.17.12ZM27.23,9.7l-.19,0a.28.28,0,0,0-.12-.05s0,0,0,0a.62.62,0,0,1-.34.18,1,1,0,0,0-.37.16.27.27,0,0,1-.16.08l-.06,0a.46.46,0,0,0-.1.1.31.31,0,0,0-.13.08.31.31,0,0,1-.14.07c-.08.18-.13.27-.17.27h-.08a.55.55,0,0,1-.13.2.2.2,0,0,0-.08.08.38.38,0,0,1-.13.11.31.31,0,0,0-.12.21.48.48,0,0,1-.08.2s-.06.11-.07.23l0,.09a1.71,1.71,0,0,0-.05.24c0,.13,0,.2,0,.2a.25.25,0,0,0,.08.17.23.23,0,0,1,.11-.05l.39-.16.14-.13a.85.85,0,0,1,.22-.14.55.55,0,0,0,.18-.13.37.37,0,0,1,.12-.13.24.24,0,0,0,.09-.14l.28-.26a1.06,1.06,0,0,0,.16-.19.3.3,0,0,1,.11-.14l0-.09h.05s.08-.09.14-.23l.18-.3a1.25,1.25,0,0,0,.26-.42l.09-.08s0,0,0-.06Zm-.12-2.18.08-.11a.2.2,0,0,1,.14-.08.29.29,0,0,0,.15-.12,1,1,0,0,1,.37-.34l.07,0c.07-.13.13-.2.18-.22a.22.22,0,0,0,.14-.12.51.51,0,0,0,.05-.17s0,0,0,0a.3.3,0,0,0-.16,0s-.07.06-.09.06h-.13l-.33.16-.12.1a.37.37,0,0,1-.14.07.13.13,0,0,0-.09.09.11.11,0,0,1-.09.07l-.05,0a.4.4,0,0,1-.15,0,.75.75,0,0,0-.14.12s-.07.07-.08.07a.69.69,0,0,1-.26.22.2.2,0,0,0-.14.11.4.4,0,0,0-.21.16.47.47,0,0,1-.15.16.43.43,0,0,0-.12.11l-.07.06a.84.84,0,0,0-.11.18.69.69,0,0,0-.06.21s0,0,0,0a.68.68,0,0,0,.25-.09,1.19,1.19,0,0,0,.23-.16l.07,0h.25A.21.21,0,0,1,26.54,8a.19.19,0,0,0,.14-.11.73.73,0,0,1,.3-.19l.07-.13Z"/>
</svg>