<svg
  xmlns="http://www.w3.org/2000/svg"
  viewBox="0 0 301.59 241.69">
  <defs>
    <style>.cls-1{fill:none;stroke:#fff;stroke-miterlimit:10;}</style>
  </defs>
  <title>Asset 8</title>
  <g id="Layer_2" data-name="Layer 2">
  <g id="Layer_1-2" data-name="Layer 1">
  <path class="cls-1" 
    d="M246.53,147c2.64-1.8,4.34-4.51,6.26-7.71-4.69-1.18-8.08.12-11.36,3.23C242.44,145.31,243.08,147.67,246.53,147Z"/><path class="cls-1" d="M201.71,155.66c8.22-5.21,17.13-8.73,26.12-12.31,5.22-2.09,11.34-3,14.71-8.92l-51.33,20C196.89,157.87,197.66,158.23,201.71,155.66Z"/><path class="cls-1" d="M176.62,166.93c7.94-4,9-8.47,1.28-14.2.18,5.35-1.89,8.45-4.89,10.67C173.77,165.47,174.8,166.64,176.62,166.93Z"/><path class="cls-1" d="M219.3,77.19c1.59-3.41,4.64-6.37,2.91-12.5-6.25,2.69-11.85-.21-18.2-1.22C214.09,75.87,214.09,75.87,219.3,77.19Z"/><path class="cls-1" d="M244.41,213.79c-2.18-3.93-5-6.16-9.95-4.78.66,3.7,1.25,7.09,2,11.47C240.42,218.51,243.62,217.6,244.41,213.79Z"/><path class="cls-1" d="M174.43,139.3c-4.24-6.56-6.51-7.7-15.35-7.62a13.65,13.65,0,0,1-6.94,3.31c-.32,4.51-2.48,7.41-5.2,10.26-7.07,7.43-15.1,13.67-23.2,19.86-6.08,4.64-12.18,4.9-19.21,1.82-6.73-3-12-8.5-20.72-10.36,7.25-2.33,1.57-9.46,6.61-11.6-.24-3.17-.56-5.74-2.64-7.89-3.52.06-7.1-2.83-10.52-.21-3,3.82-1,7.42.12,10.84-2.42,1-3.52-3.1-6.06-.55,1.83,8.58,10.2,12.53,14.7,19.69-6.27,3.23-13.46,5.11-16.39,12.8a16.66,16.66,0,0,0,8.87,0c6.29-1.35,12.71-1.35,19-2.31,3.4-.51,7.11-1.07,9.88,2.85L102,187.84c-3.7-.12-4.45-3.93-7.2-4.61-5.6-1.44-3.69,4.29-5.16,5.64-7.4,2.42-14.61,2.71-20.6,6.67,3.43,8.34,7.32,12.35,15,15.77,12.8,5.68,27.67-1.48,30.14-15.27,1.24-6.94,4.78-8.57,10.69-8.48,8.91.14,11.26-2.46,10.84-11.5-.13-2.86-.69-6,1.58-8.1,7.48-7,13.92-15.83,26.2-15.56C164.49,146,174.05,146.4,174.43,139.3Z"/><path class="cls-1" d="M211.55,180.11c9.78,2.76,17-2.7,17-12.8,0-5.68-2.93-11.07-1.17-17-4.55,6.39-1.26,15.5-7.66,20.7-7,2.11-11.08-4.43-17.23-4.76-5.77,2.42-11.36,5.71-15.16,10.92-4.78,6.57-10.73,6.87-17.58,4.83-2.45-.72-4.74-2.23-7.51-1.55,6,11.24,14.14,13,24,5.36a20.21,20.21,0,0,0,2.26-1.7c6.44-6.83,13.78-8.65,22.31-4.13C211.05,180.1,211.32,180,211.55,180.11Z"/><path class="cls-1" d="M206.46,231.27c4.91,1.48,9,5.73,15.4,5.11,2.16-5.08,6.88-8,10.77-11.95.1-6-.48-11.67-4-16.6C214.52,211,204.67,221.38,206.46,231.27Z"/><path class="cls-1" d="M301.05,216.63c-22.64,2.14-42.32,10.78-62,20,7.92-8.86,17.73-15,28-20.47,10.49-5.62,21.78-9,33.22-11.52,1.23-3.89.44-7.37.64-11.76-16.38.52-29.89,8.56-44.45,14.34-2.33-10.23-2-19,6-25.88-1.71-3.59-5.47-4.93-7.32-8.47,3.71-7.07,8.2-14.08,9.46-22.3,1.74-2.65,6-3.69,4.81-8-2.38-1.9-4.51,1.52-7.5-.3-2.55-2.79-3.52-7.13-5.06-11.21,3.26-1.45,6.58-2.16,8.44-5.21,3.72.15,5.57,3.11,8.14,5.78,2.41-1.68,5.25-1.48,8-1.8,10.48-1.22,13.49-8.09,7.44-16.88-1.67-1.54-3.7.19-5.5-.62-1.82-1.74-1.71-4.91-4.52-6.36-10.28,15.41-28.2,16.78-43.58,23.88-3.56-5.18-9.42-7.65-13.65-11.65-1.9-7.55,5.6-11,6.42-17.51-2-1.68-4.78-2.69-6.61-5.26-4.1-5.8-6.83-6.13-13.2-2.73-.84.45-1.66.92-2.51,1.33-.19.1-.47,0-1.12,0a30,30,0,0,1-.76-10.43c3.66-.62,6.61.83,9.48,2.29a44.18,44.18,0,0,0,11.37,3.93c5.54,1.13,8.52-.65,10.05-6.22,1.69-6.11,1.49-12.19-1.69-17.73.5-4,3.52-6.27,4.74-9.49l20.53-2.91c4.25,1.16,7.26,6.2,12.43,3.56,1.13-3.39,1.13-3.39-.59-6.61-2.61-1.11-2.89,1.82-4.87,2.74-3.83-3.19-8.24-3.31-13.08-1.69a19.09,19.09,0,0,1-11.91.06c-2.64-.85-5.23,0-7.63-.44-12-2-23.56,3.2-35.49,2.19C194.88,43.1,207.29,43.18,208.58,36c-1.42-2.92-5-.15-5.77-2.26-2.19-2.27-1.16-4.71-2.4-7.09-2.75,1.36-5.72,2.63-8.84.69-2.49,2.86-3.18,6.49-6.67,8.33-2.75,1.45-7.27,1.45-7.6,6.1,2.28,2.86,5.42,1.44,8.26,2.1,2.2,5.1,4.42,10.25,6.81,15.81-5.25,1.47-12.81-1.31-12.79,8-4.84-1.89-9.17-3.78-13.63-5.27-4.22-1.41-8.57-3.38-13.23.14a13.77,13.77,0,0,0-2.67,7.32c6.73,11.5,20.08,7.92,30.59,12.78-4.39,8.19-4.31,17.5-5.81,26-9,4.71-18.55,6.11-26.79,10.92-4.53,2.64-23.43-3.39-26.06-7.83a11.63,11.63,0,0,1-2-7.13c.34-2.39,3.42-3.44,4.36-6.79-9.14-12.78-22.74-15.77-37.49-15.79-3-1.34-4.2-3.84-5.25-6.55-2.72-7-5.82-13.94-8.24-21.08a81.82,81.82,0,0,0-11.6-21.8c-4.19-5.77-7.15-12.24-11.2-17.69.19-2.52,3.8-1.95,3.2-4.75C53.12,4.91,48.59,3,44.67.5H40.39c-7.17,6.22-4.69,13.71-2.45,20.93,2,6.32,6.57,11.45,8.61,17.83,11.22,5,17.23,15.33,16.33,28.14-.4,5.65-4.79,7.89-9.06,9.87-3.84,1.78-8,3.37-11.56-.84-.19-3.16,2.33-5.33,2.37-8.2C45,65.74,42.54,64,43,61.55c.11-3,4.13-3.34,4.1-6.56-2.68-2.68-5.75-.05-8.55-.51-5.2-.86-6.09-6.3-10-9.35L21,48.33c-.48,7.23-.65,14.67-7.7,19.37,3,2.21,5.32.25,7.83-.28,2,3,3.24,6.67,7.38,6.41C31.4,84.65,28.2,94,23.67,103c-5.48,10.83-7.52,22.22-7.6,34.24-.05,8.21-1.6,16.35-2,24.6a79.54,79.54,0,0,0,1.14,15.85,41.71,41.71,0,0,0,13.93,4.15c9,14.4,7.13,30.93,8.77,47.64-6.33-1-12-2.4-16.5-5.14-6.65-4.06-13.72-4.84-21-5.82v21.37c6.06-.77,12-2.77,18.22-2.1a33.44,33.44,0,0,1,6.27,1c8.73,2.66,12.78,3,23.53,1.72.67-6.2-.48-13.15,4.83-19,5.69,5.4,5.15,12.29,5,19.23h60.89c9.29-9.1,20.34-16.69,33.43-20.86,7.66-2.45,15.43-4.23,23.7-3.41,13.61,1.34,19.24,8.64,16.48,22.1a15.07,15.07,0,0,0,0,2.59H242q12.1,0,24.22,0c9,0,18,.75,25.39-2.8,3.95-.19,5.06,3.87,8.81,2.26C301.65,233.05,300.56,225.17,301.05,216.63ZM222.21,64.69c1.73,6.13-1.32,9.09-2.91,12.5-5.21-1.32-5.21-1.32-15.29-13.72C210.36,64.48,216,67.38,222.21,64.69Zm30.58,74.6c-1.92,3.2-3.62,5.91-6.26,7.71-3.45.67-4.09-1.69-5.1-4.48C244.71,139.41,248.1,138.11,252.79,139.29Zm-10.25-4.86c-3.37,5.91-9.49,6.83-14.71,8.92-9,3.58-17.9,7.1-26.12,12.31-4.05,2.57-4.82,2.21-10.5-1.25Zm-64.64,18.3c7.68,5.73,6.66,10.21-1.28,14.2-1.82-.29-2.85-1.46-3.61-3.53C176,161.18,178.08,158.08,177.9,152.73ZM137.27,168c-2.27,2.12-1.71,5.24-1.58,8.1.42,9-1.93,11.64-10.84,11.5-5.91-.09-9.45,1.54-10.69,8.48-2.47,13.79-17.34,21-30.14,15.27-7.68-3.42-11.57-7.43-15-15.77,6-4,13.2-4.25,20.6-6.67,1.47-1.35-.44-7.08,5.16-5.64,2.75.68,3.5,4.49,7.2,4.61l5.43-7.62c-2.77-3.92-6.48-3.36-9.88-2.85-6.32,1-12.74,1-19,2.31a16.66,16.66,0,0,1-8.87,0c2.93-7.69,10.12-9.57,16.39-12.8-4.5-7.16-12.87-11.11-14.7-19.69,2.54-2.55,3.64,1.53,6.06.55-1.13-3.42-3.09-7-.12-10.84,3.42-2.62,7,.27,10.52.21,2.08,2.15,2.4,4.72,2.64,7.89-5,2.14.64,9.27-6.61,11.6,8.72,1.86,14,7.4,20.72,10.36,7,3.08,13.13,2.82,19.21-1.82,8.1-6.19,16.13-12.43,23.2-19.86,2.72-2.85,4.88-5.75,5.2-10.26a13.65,13.65,0,0,0,6.94-3.31c8.84-.08,11.11,1.06,15.35,7.62-.38,7.1-9.94,6.66-11,13.1C151.19,152.13,144.75,161,137.27,168Zm51.27,16.17a20.21,20.21,0,0,1-2.26,1.7c-9.88,7.68-18,5.88-24-5.36,2.77-.68,5.06.83,7.51,1.55,6.85,2,12.8,1.74,17.58-4.83,3.8-5.21,9.39-8.5,15.16-10.92,6.15.33,10.23,6.87,17.23,4.76,6.4-5.2,3.11-14.31,7.66-20.7-1.76,5.91,1.21,11.3,1.17,17-.06,10.1-7.24,15.56-17,12.8-.23-.07-.5,0-.7-.11C202.32,175.48,195,177.3,188.54,184.13Zm44.09,40.3c-3.89,3.91-8.61,6.87-10.77,11.95-6.39.62-10.49-3.63-15.4-5.11-1.79-9.89,8.06-20.29,22.14-23.44C232.15,212.76,232.73,218.45,232.63,224.43ZM234.46,209c5-1.38,7.77.85,9.95,4.78-.79,3.81-4,4.72-7.93,6.69C235.71,216.1,235.12,212.71,234.46,209Z"/>
  </g>
  </g>
  </svg>