<svg
  xmlns="http://www.w3.org/2000/svg"
  viewBox="0 0 30 11"
  preserveAspectRatio="xMinYMin meet">
  <style>.cls-1{fill:#f0e6be;}</style>
    <path class="cls-1" d="M1.74,0a6.43,6.43,0,0,1,4,1.14,3.65,3.65,0,0,1,1.49,3,3.7,3.7,0,0,1-.66,2.23,4.41,4.41,0,0,1-2,1.46A5.69,5.69,0,0,0,5.83,9.52a2.15,2.15,0,0,0,1.4.53.82.82,0,0,1,.27,0,.12.12,0,0,1,.07.11c0,.06,0,.1-.05.12a.62.62,0,0,1-.24,0A2.43,2.43,0,0,1,5.7,9.78,5.88,5.88,0,0,1,4.3,8a4,4,0,0,1-.47.11,3.91,3.91,0,0,1-.49,0,1.63,1.63,0,0,1-1-.26A.79.79,0,0,1,2,7.16a.61.61,0,0,1,.21-.47.88.88,0,0,1,.57-.18,1.53,1.53,0,0,1,.86.27,3,3,0,0,1,.79.82A3.9,3.9,0,0,0,6.3,6.28a3.5,3.5,0,0,0,.62-2.1A3.37,3.37,0,0,0,5.53,1.33a6.14,6.14,0,0,0-3.79-1H1.5V7.64c0,.37,0,.77,0,1.19s0,.89.06,1.4H0c0-.48,0-.94.05-1.37s0-.83,0-1.22v-5c0-.39,0-.79,0-1.22S0,.49,0,0Zm2.4,7.7A2.53,2.53,0,0,0,3.48,7a1.37,1.37,0,0,0-.71-.22.57.57,0,0,0-.36.11.35.35,0,0,0-.14.27.52.52,0,0,0,.31.45,1.5,1.5,0,0,0,.78.18l.39,0Z"/>
    <path class="cls-1" d="M9.11,8.54v1a.52.52,0,0,0,.24.48,1.6,1.6,0,0,0,.79.15,1.71,1.71,0,0,0,1-.38.57.57,0,0,1,.19-.11.12.12,0,0,1,.09.06.16.16,0,0,1,.05.11c0,.1-.15.23-.44.39a2.07,2.07,0,0,1-1,.23,2.15,2.15,0,0,1-1.53-.61A2,2,0,0,1,7.92,8.3a2.11,2.11,0,0,1,.69-1.6,2.45,2.45,0,0,1,1.71-.65,1.37,1.37,0,0,1,.95.34,1.09,1.09,0,0,1,.39.85,1.29,1.29,0,0,1-.52,1,2,2,0,0,1-1.28.42,1.75,1.75,0,0,1-.4,0A2,2,0,0,1,9.11,8.54ZM9.11,7V8.07a.25.25,0,0,0,.18.25,1.3,1.3,0,0,0,.55.08,1.69,1.69,0,0,0,1.07-.34,1,1,0,0,0,.44-.82.8.8,0,0,0-.3-.64,1.16,1.16,0,0,0-.77-.26,1.76,1.76,0,0,0-.85.18A.53.53,0,0,0,9.11,7Z"/>
    <path class="cls-1" d="M14.62,9.26l1.19-2.58.1-.23c.1-.23.19-.35.26-.35a.17.17,0,0,1,.12.05.11.11,0,0,1,.05.09.66.66,0,0,1-.1.26,2.31,2.31,0,0,0-.16.3L14.5,10.21a.31.31,0,0,1-.09.11.25.25,0,0,1-.11,0,.13.13,0,0,1-.1,0,.24.24,0,0,1-.08-.11L12.37,6.86c0-.08-.11-.17-.17-.28L12,6.23h1.21c0,.11.07.21.1.3l.1.23Z"/>
    <path class="cls-1" d="M20.07,9.66a3.27,3.27,0,0,1-.79.52,2.12,2.12,0,0,1-.84.18,1.26,1.26,0,0,1-1-.37,1.76,1.76,0,0,1-.32-1.17V6.62l0-.39h1c0,.12,0,.25,0,.38s0,.3,0,.51V9.39a.89.89,0,0,0,.13.51.49.49,0,0,0,.4.16,1.55,1.55,0,0,0,.72-.19,2.84,2.84,0,0,0,.74-.55V7.14c0-.22,0-.39,0-.52s0-.27,0-.39h1l0,.38V9.85l0,.38H20a.51.51,0,0,0,0-.13,1,1,0,0,0,0-.2Z"/>
    <path class="cls-1" d="M23.37,8.54v1a.53.53,0,0,0,.25.48,1.6,1.6,0,0,0,.79.15,1.71,1.71,0,0,0,1-.38.57.57,0,0,1,.19-.11s.05,0,.09.06a.15.15,0,0,1,0,.11c0,.1-.14.23-.43.39a2.1,2.1,0,0,1-1,.23,2.19,2.19,0,0,1-1.54-.61,2,2,0,0,1-.64-1.51,2.12,2.12,0,0,1,.7-1.6,2.41,2.41,0,0,1,1.71-.65,1.39,1.39,0,0,1,.95.34,1.11,1.11,0,0,1,.38.85,1.26,1.26,0,0,1-.52,1,1.94,1.94,0,0,1-1.27.42,1.75,1.75,0,0,1-.4,0A2.42,2.42,0,0,1,23.37,8.54Zm0-1.54V8.07a.25.25,0,0,0,.18.25,1.33,1.33,0,0,0,.55.08,1.67,1.67,0,0,0,1.07-.34,1,1,0,0,0,.44-.82.8.8,0,0,0-.3-.64,1.13,1.13,0,0,0-.76-.26,1.76,1.76,0,0,0-.85.18A.54.54,0,0,0,23.37,7Z"/>
  </svg>