<svg
  xmlns="http://www.w3.org/2000/svg"
  viewBox="0 0 30 10">
  <defs><style>.cls-1{fill:#702e2f;}</style></defs>
  <title>Swing</title>
  <g id="Layer_2" data-name="Layer 2">
    <g id="Layer_1-2" data-name="Layer 1">
      <path class="cls-1" d="M4.65,7.27l.06-.14.17-.2c.1-.15.17-.24.23-.26a.36.36,0,0,1,0-.11.39.39,0,0,0,0-.15l.06-.11,0,0,0-.08,0-.14s-.12-.16-.36-.37h0l-.5-.24,0-.06-.06,0-.07,0h0l-.23-.07L3.52,5.2h0L3.2,5.15a.31.31,0,0,1-.14-.06A.27.27,0,0,0,3,5Q2.85,5,2.83,5a.16.16,0,0,0-.11,0L2.54,5s-.06,0-.19-.06,0-.07,0-.07l-.2,0-.2-.09-.24,0a.66.66,0,0,1-.27-.08.78.78,0,0,0-.18-.08l0,0-.08,0H1a.16.16,0,0,1-.11-.07,1,1,0,0,0-.19-.13.72.72,0,0,1-.2-.22.69.69,0,0,1-.09-.3v0l0-.22a1.39,1.39,0,0,1,.39-.77A.38.38,0,0,1,1,2.51l0-.1a1.84,1.84,0,0,0,.28-.27A1.06,1.06,0,0,1,1.54,2a.83.83,0,0,0,.17-.12l.12-.05s.1-.14.31-.29a1.93,1.93,0,0,1,.49-.3l.23-.11A1.63,1.63,0,0,1,3.2,1c0-.12.11-.19.21-.19h.11L3.65.68h.19L3.91.6A.31.31,0,0,1,4.12.53L5,.28h.1A.25.25,0,0,0,5.2.2.26.26,0,0,1,5.42.1s0,0,.1.06,0,0,0,0L5.71.12h.21L6.19.06a.78.78,0,0,1,.44.12l0,0v0c0-.08,0-.12.13-.12a.08.08,0,0,1,.07,0l.08.05H7l.17.08A.4.4,0,0,1,7.28.09.25.25,0,0,1,7.49.2l.12,0,.06,0s.07,0,.11.11H8l.06,0,.08.07L8.2.44a.18.18,0,0,0,.05.07L8.44.43s.08,0,.1.12a.24.24,0,0,0,.12.18.27.27,0,0,1,.12.2.23.23,0,0,1,.15.22l.13.33L9,1.6a.57.57,0,0,1,.06.12l0,.26,0,.26a.45.45,0,0,1-.2.36.28.28,0,0,0-.13.06l-.11.06c-.12,0-.2,0-.23-.08a.51.51,0,0,0-.12-.13.16.16,0,0,1-.05-.11.4.4,0,0,1,.21-.31A.17.17,0,0,0,8.6,2a.27.27,0,0,0-.06-.2.51.51,0,0,1-.14-.15,1.06,1.06,0,0,0-.15-.15.5.5,0,0,1-.14-.15q0-.09-.09-.09l-.09,0-.2-.05a2.14,2.14,0,0,1-.58-.14H7l-.37-.05a1,1,0,0,1-.27,0l-.46.07-.18,0-.38.12H5.11l-.17.07-.27.1-.07,0a.05.05,0,0,1,0,0l-.11,0-.6.3-.09-.06-.13-.05c-.07,0-.1,0-.1.09v.13L3.4,2,3.33,2H3.25a.19.19,0,0,0-.15.07A.27.27,0,0,1,3,2.17a.35.35,0,0,0-.16.06s0,0-.11,0a.22.22,0,0,0-.14.13c0,.07-.08.1-.12.1l-.14,0-.08.14-.16,0a.76.76,0,0,1-.18.18L1.71,3a.4.4,0,0,0-.12.15.34.34,0,0,1-.12.12.38.38,0,0,0-.13.18l-.06.07a.38.38,0,0,0-.18.3c0,.08.06.14.17.17a.78.78,0,0,1,.2.09.17.17,0,0,0,.13,0,.4.4,0,0,1,.15,0L2,4.23c0,.07,0,.11.06.11l.06,0a.14.14,0,0,1,.12-.06.22.22,0,0,1,.17.11l.06,0h0l.09,0h0l.08,0,0,0,.21.07H3l.11,0,.11,0,.1.06,0,0,.09,0a.19.19,0,0,1,.1,0,.15.15,0,0,1,.12.07l.12,0A.44.44,0,0,1,4,4.5l.13,0h.15l.22,0a.87.87,0,0,0,.2.15s0-.07.1-.07a1,1,0,0,1,.33.09h.06l.05,0,.14,0c.09,0,.14,0,.14.1a.59.59,0,0,1,0,.21l0,0A.16.16,0,0,1,5.55,5L5.65,5l0,0a.88.88,0,0,1,.44.21.82.82,0,0,1,.33.5.58.58,0,0,0,0,.2L6.5,6v.11a.65.65,0,0,1,0,.1v.1a.1.1,0,0,1,0,0,.1.1,0,0,0,0,.05l0,.11v0s0,0,0,.08a.18.18,0,0,0-.07.09.25.25,0,0,1,0,.08.37.37,0,0,0,0,.11s0,.08-.13.14S6,7.09,6,7.12s0,0,0,0a.29.29,0,0,0,.17-.08L6.3,7a.71.71,0,0,0,.17-.09l.64-.3a5.51,5.51,0,0,1,.8-.34A.1.1,0,0,1,8,6.37s0,.08-.1.16-.1.34-.28.37a.78.78,0,0,0-.16.15H7.43A.49.49,0,0,1,7,7.24H7a.94.94,0,0,1-.62.28A.66.66,0,0,1,6,7.76l-.11,0-.24.06-.06.06L5.48,8a.7.7,0,0,0-.28.15A.5.5,0,0,1,5,8.27l-.17.06-.71.47L4,8.83a1,1,0,0,0-.34.2.7.7,0,0,1-.16.13h0a.59.59,0,0,0-.37.21.84.84,0,0,1-.29.11,2,2,0,0,0-.55.24l-.4.11a2.18,2.18,0,0,1-.35.08L1,10l-.36.09a.59.59,0,0,0-.21,0H.33L.25,10,.1,9.93C0,9.9,0,9.82,0,9.69s.13-.22.38-.34l.49-.23A.26.26,0,0,1,1.06,9,.57.57,0,0,0,1.29,9a.72.72,0,0,1,.29-.12l.27-.15H2s.08,0,.15-.08a.78.78,0,0,1,.2-.11h.08l0,0,.12-.09h.09a.78.78,0,0,1,.18-.11A.66.66,0,0,0,3,8.13l.53-.2h.12a.17.17,0,0,0,.11-.06.65.65,0,0,1,.31-.13.45.45,0,0,1,.14-.13l.26-.22ZM2.27,9l-.1,0A.35.35,0,0,1,2,9a.89.89,0,0,0-.28.13,3.77,3.77,0,0,1-.45.23c-.17.07-.26.12-.26.14a2.68,2.68,0,0,0,.7-.18l.5-.14.13,0a.47.47,0,0,1,.15-.08L2.58,9l.15-.06c.07,0,.11,0,.11-.08s0,0,0,0a.9.9,0,0,0-.4.07Z"/>
      <path class="cls-1" d="M8.14,5.94l.11,0,.12-.13a.42.42,0,0,1,.18-.13.42.42,0,0,0,.19-.22,1.16,1.16,0,0,1,.49-.33.58.58,0,0,1,.34.27,1.79,1.79,0,0,1,0,.48.46.46,0,0,1-.07.22,1.44,1.44,0,0,0-.09.21,2.21,2.21,0,0,1-.13.23l0,0a.75.75,0,0,0-.08.14.64.64,0,0,1-.13.19A.76.76,0,0,0,9,7.08a2.38,2.38,0,0,1-.18.34,2.71,2.71,0,0,0-.15.48s0,.07,0,.07a.16.16,0,0,0,.09,0l.07,0h.08L9,7.84a.46.46,0,0,0,0-.09l.18-.09h0a.19.19,0,0,1,0-.08s0-.07.14-.08a.46.46,0,0,0,.2-.09c0-.06,0-.1,0-.11s.05,0,.08-.09a.18.18,0,0,1,.15-.1c.07,0,.1,0,.1-.08a.38.38,0,0,1,.25-.35.07.07,0,0,0,.06-.07c0-.09,0-.14,0-.15l.12-.08.14-.18.06-.14A.22.22,0,0,1,10.63,6a.61.61,0,0,0,.1-.15.49.49,0,0,1,.1-.16l.08-.12a.27.27,0,0,1,.24-.18s.16.07.33.22a.77.77,0,0,1,.25.64c0,.11,0,.17-.08.2s-.1.1-.13.23a1.4,1.4,0,0,1-.13.36,1.85,1.85,0,0,1-.1.18l0,.09v0a.42.42,0,0,1-.08.26s0,0,0,.11l-.07.11c0,.18,0,.27.1.27l.11,0,.12,0a.88.88,0,0,0,.21-.1l.44-.28.09-.09.06,0a.28.28,0,0,0,.15-.15.18.18,0,0,1,.13-.11.54.54,0,0,1,.17-.3L13,6.53a1,1,0,0,1,.1-.17,1.82,1.82,0,0,0-.18-.66v0A.48.48,0,0,1,13,5.39c.06-.08.12-.13.17-.13l.14,0,.19,0s.14.06.3.2a.62.62,0,0,1,.24.5.67.67,0,0,1-.07.33,1.71,1.71,0,0,0-.09.27.26.26,0,0,1-.13.19l0,0a.57.57,0,0,1-.27.48c0,.07-.09.15-.14.25a.41.41,0,0,1-.14.18.84.84,0,0,0-.11.15.7.7,0,0,1-.14.19.81.81,0,0,1-.18.08c-.1,0-.14.09-.14.15l0,.1a1.68,1.68,0,0,0-.31.25l-.13,0a1.09,1.09,0,0,1-.78.28.82.82,0,0,1-.52-.24.67.67,0,0,1-.27-.48L10.5,8a4.44,4.44,0,0,1,0-.76s0,0,0,0,0-.08-.05-.08a.35.35,0,0,0-.07.11.22.22,0,0,1-.09.1l-.11.09c0,.11,0,.17-.07.19l-.12.1a.93.93,0,0,1-.18.16,2.42,2.42,0,0,1-.28.41v0l-.07,0-.11.11a3.32,3.32,0,0,1-.52.36A1.84,1.84,0,0,1,8.4,9a.4.4,0,0,1-.31-.13.5.5,0,0,1-.16-.28,1.07,1.07,0,0,0-.06-.27.54.54,0,0,1,0-.18.7.7,0,0,1,0-.14.75.75,0,0,0,0-.2.42.42,0,0,1,0-.11V7.6L8,7.49a.32.32,0,0,0,.08-.2.33.33,0,0,1,.06-.13L8.22,7a.48.48,0,0,1,.1-.15,1.83,1.83,0,0,1,.06-.19.48.48,0,0,0,0-.16v0c-.07,0-.16.06-.28.18L8,6.73s-.16.11-.3.23-.13.13-.19.13S7.2,7,7.2,6.79a.21.21,0,0,1,.08-.19.32.32,0,0,0,.1-.11s.06-.06.16-.08.21-.13.33-.32c.11,0,.17,0,.19,0A.31.31,0,0,1,8.14,5.94Z"/>
      <path class="cls-1" d="M14.66,6.61l.1-.1h.05s.08,0,.14-.1l.07,0a.55.55,0,0,1,.24-.23l.11-.09.08,0a.76.76,0,0,0,.16-.14c.08-.07.14-.11.18-.11h.11a.48.48,0,0,1,.16-.16.52.52,0,0,0,.2-.19l.09,0a.56.56,0,0,0,.2-.14.31.31,0,0,1,.22-.08.63.63,0,0,1,.41.2.53.53,0,0,1,.22.39l-.12.53c-.07.39-.16.6-.26.61l0,.15c-.07,0-.1.08-.1.11l0,.16a.16.16,0,0,1-.07.1s0,0,0,0v.29a.14.14,0,0,1-.09.12l0,0A.24.24,0,0,1,17,7.85l.11,0,.15-.15a.59.59,0,0,0,.14-.07,1.73,1.73,0,0,1,.29-.13l.89-.68c.12-.13.22-.19.28-.19s.1,0,.1.13a.49.49,0,0,1-.06.25,1.33,1.33,0,0,0-.1.24.35.35,0,0,1-.12.19l-.1.12a.75.75,0,0,1-.22.19A2.1,2.1,0,0,0,18,8a.77.77,0,0,1-.21.18l-.29.22,0,.06-.13.06a1,1,0,0,0-.2.11L17,8.72a.39.39,0,0,1-.14,0,.23.23,0,0,0-.16.08.2.2,0,0,1-.11.07l-.1,0-.14,0a.43.43,0,0,1-.28-.14.39.39,0,0,1-.17-.29v0l0-.1a.81.81,0,0,0-.05-.14l0-.13,0-.09,0,0a.59.59,0,0,1,0-.24.33.33,0,0,0,0-.13c0-.06,0-.1,0-.14l0-.17a.23.23,0,0,1,.07-.11A1.84,1.84,0,0,1,16.13,7l0-.13.07-.09a.26.26,0,0,0,.07-.15.37.37,0,0,1,.07-.19.4.4,0,0,0,.06-.13.07.07,0,0,0-.08-.08.58.58,0,0,0-.17.11l-.13,0L16,6.36s0,0-.06,0a.21.21,0,0,0-.12.1h0l-.09,0h0s-.07,0-.08.15a.37.37,0,0,1-.2.15l-.15,0a.19.19,0,0,0-.11.12.39.39,0,0,1-.14.18.32.32,0,0,1-.13.07.18.18,0,0,1-.2-.21l.06-.32Zm2.95-3.42,0-.26V2.88c0-.21.07-.33.22-.35l.28-.09a.47.47,0,0,1,.26.22.56.56,0,0,1,.13.33.1.1,0,0,1,0,.06.62.62,0,0,0,0,.18.3.3,0,0,1-.14.23.39.39,0,0,1-.27.1.41.41,0,0,1-.24-.13A.43.43,0,0,1,17.61,3.19Z"/>
      <path class="cls-1" d="M24.91,7.64h0l.07,0h0a.23.23,0,0,1,.11-.2.3.3,0,0,1,.15-.2L25.68,7l.17-.15.08,0L26,6.77a.21.21,0,0,1,.14-.09c.07,0,.11,0,.11.07l-.07.14,0,.23a.32.32,0,0,1-.08.21l-.27.29L25.5,8l-.18.1a.4.4,0,0,0-.12.1l-.27.22a.16.16,0,0,1-.06.14h-.11l-.06,0c0,.09-.12.17-.28.26l-.09.06a.16.16,0,0,1-.09,0l-.2,0-.12,0a.26.26,0,0,1-.15,0,.82.82,0,0,0-.19-.09.56.56,0,0,1-.24-.25.85.85,0,0,1-.16-.29.16.16,0,0,0,0-.09s0-.07,0-.08a.73.73,0,0,1,.07-.14h0l0-.1a.34.34,0,0,1,0-.18.41.41,0,0,0,0-.16.1.1,0,0,0,.05-.08.15.15,0,0,0,0-.08.31.31,0,0,1,0-.08l0-.33,0-.17V6.58c0-.09,0-.14-.12-.14a.23.23,0,0,0-.14.07l-.05,0a1.14,1.14,0,0,0-.25.15.37.37,0,0,1-.16.05.34.34,0,0,1-.16.08l0,0-.11.08a1.42,1.42,0,0,1-.26.23l-.46.39a.84.84,0,0,1-.29.21c-.06,0-.09.06-.09.17s-.05.05-.13.11a1.13,1.13,0,0,0-.14.15.34.34,0,0,0-.12-.08c-.06,0-.11.07-.13.22a.25.25,0,0,1-.22.11.28.28,0,0,0,0,.1l0,0h-.07L20,8.65a.48.48,0,0,1-.15.1q-.09.18-.15.18l-.08,0a.33.33,0,0,0-.12-.05c-.05,0-.11-.07-.17-.17a.51.51,0,0,1-.09-.25c0-.5.09-.78.29-.82l0,0V7.53a.11.11,0,0,1,.07-.12.45.45,0,0,0,.16-.15l.11-.13H20s0,0,0-.14a.11.11,0,0,1,0-.08.11.11,0,0,0,0-.1.88.88,0,0,1,.1-.21.72.72,0,0,0,.1-.17l0,0a.7.7,0,0,1-.24.17c-.05,0-.12.07-.21.2l-.11,0L19.33,7s-.1.07-.15.15a.06.06,0,0,1-.05.06.69.69,0,0,0-.18.11h0c-.12,0-.17-.08-.17-.25l.14-.39a.61.61,0,0,1,.29-.31,3.33,3.33,0,0,0,.39-.24A.51.51,0,0,1,19.87,6l.05-.07a.54.54,0,0,0,.31-.28c.06-.13.13-.19.23-.19a.66.66,0,0,1,.57.27.9.9,0,0,1,.2.44v.19a1,1,0,0,1,0,.26.51.51,0,0,0-.08.19s0,.05.07.05l.11-.05a.58.58,0,0,1,.15-.11.22.22,0,0,0,.1-.08.42.42,0,0,1,.24-.23.67.67,0,0,0,.21-.1l.07-.06.05-.1A.6.6,0,0,0,22.37,6a.35.35,0,0,1,.16-.09.54.54,0,0,0,.24-.12l.1,0,.09,0,.09,0,.2-.07.18,0a.64.64,0,0,1,.55.28.92.92,0,0,1,.2.45v.12l0,.19v0L24.14,7V7.1a.61.61,0,0,1-.13.45s0,0,0,.07v.06l.14.28q.06.15.09.15l.22-.06a.24.24,0,0,0,.16-.14.91.91,0,0,0,.19-.16C24.81,7.67,24.85,7.64,24.91,7.64Z"/>
      <path class="cls-1" d="M25.84,13.12l-.11.07a.23.23,0,0,1-.14,0c-.12,0-.22-.07-.33-.22a.78.78,0,0,1-.16-.47,1.75,1.75,0,0,1,.08-.61,1,1,0,0,0,.1-.27l.15-.34a2.7,2.7,0,0,1,.28-.5,2.49,2.49,0,0,0,.21-.32l0-.05a.8.8,0,0,1,.2-.23s.09-.12.26-.28a5.58,5.58,0,0,1,.5-.42L27,9.43a.89.89,0,0,1,.19-.11l.39-.11L27.83,9h.06L28.07,9a2,2,0,0,1,.47-.13c.21,0,.33-.08.36-.13L29,8.54s.07-.14.15-.29a1.06,1.06,0,0,1,.05-.18.19.19,0,0,1,0-.09s0-.05.08-.13a1.2,1.2,0,0,1,.11-.2s0,0,0,0l0-.12a.38.38,0,0,1,.12-.2s.05,0,.05-.05l0-.13.11-.25a0,0,0,0,0,0,0,1.76,1.76,0,0,1-.42.26L29,7.28a.28.28,0,0,0-.16.14l-.05,0,0,.07-.05,0-.19.11h-.08s0,0-.07.13a.52.52,0,0,1-.22.17A.26.26,0,0,0,28,8L28,8.08h-.07c-.09,0-.14,0-.14.11s0,.08-.08.14a.27.27,0,0,0-.14,0h-.1a.32.32,0,0,1-.25.18l-.2.14-.11,0-.17.1a.53.53,0,0,1-.28.07,1.34,1.34,0,0,0-.29-.1c-.13,0-.23-.26-.28-.67h0a.19.19,0,0,0-.12,0l-.09,0c-.11,0-.17,0-.17-.13a.41.41,0,0,1,.23-.41l.17-.21L26.3,7c.31-.3.51-.5.62-.59l.34-.25L27.61,6l.22-.13.09,0a.88.88,0,0,1,.25-.11l.12,0a1.93,1.93,0,0,1,.49-.13h.1a.24.24,0,0,0,.14,0,.62.62,0,0,0,.3-.15l.24-.07.17,0h.13c.1,0,.16.07.19.22s.06.23.08.23,0,0,.08-.11l.1-.06a.32.32,0,0,1,.13-.07c.11,0,.18,0,.2.13v0l0,0a3.18,3.18,0,0,1,.06.41.81.81,0,0,1-.14.51,1.5,1.5,0,0,0-.17.26,4.47,4.47,0,0,1-.27.83c0,.05-.08.18-.16.4l-.07.07s0,0,0,0l0,.09a.62.62,0,0,0-.12.3.82.82,0,0,1-.11.25l.12.07A.92.92,0,0,1,30,9a.47.47,0,0,1,.13.24,1.65,1.65,0,0,1-.07.27.8.8,0,0,1-.42.18.48.48,0,0,1-.2-.08h0v0a.38.38,0,0,1-.14-.05l-.1,0s-.06,0-.06,0a.14.14,0,0,0,0,.06l-.11.1a.78.78,0,0,1-.1.2.81.81,0,0,1-.17.25c-.1,0-.17.08-.2.22a.55.55,0,0,1-.13.28l-.07,0a2.14,2.14,0,0,1-.47.67c-.09,0-.14,0-.14.06s0,0,0,.08-.06.13-.16.23-.16.15-.18.15l-.07,0,0,0c0,.09-.12.24-.36.44s-.21.12-.22.15a.83.83,0,0,1-.4.3l-.13.12a.63.63,0,0,1-.18.12ZM28.31,9.6l-.21,0A.25.25,0,0,0,28,9.58s0,0,0,0a.74.74,0,0,1-.37.18.93.93,0,0,0-.37.16A.36.36,0,0,1,27,10c-.05,0-.07,0-.07,0l-.1.1a.34.34,0,0,0-.14.08.31.31,0,0,1-.14.07c-.09.18-.14.27-.18.27h-.08a.68.68,0,0,1-.14.2.2.2,0,0,0-.08.08A.61.61,0,0,1,26,11a.32.32,0,0,0-.13.21.48.48,0,0,1-.08.2s-.06.11-.07.23l0,.09-.06.24a1.81,1.81,0,0,1,0,.2.22.22,0,0,0,.09.17s.05,0,.11-.05l.41-.16.15-.13a.65.65,0,0,1,.23-.14.68.68,0,0,0,.18-.13.4.4,0,0,1,.13-.13.24.24,0,0,0,.09-.14l.29-.26A.85.85,0,0,0,27.4,11a.27.27,0,0,1,.12-.14l0-.09h.06s.08-.09.15-.23l.18-.3a1.27,1.27,0,0,0,.27-.42l.09-.08a.06.06,0,0,0,0-.06Zm-.12-2.18.08-.11a.2.2,0,0,1,.14-.08.31.31,0,0,0,.16-.12A1,1,0,0,1,29,6.77l.07,0c.07-.13.13-.2.18-.22s.1,0,.15-.12a.38.38,0,0,0,.06-.17s0,0,0,0a.31.31,0,0,0-.17.05c-.05,0-.08.06-.1.06H29c-.08,0-.19.1-.34.16l-.12.1a.48.48,0,0,1-.15.07.17.17,0,0,0-.1.09.11.11,0,0,1-.09.07l-.05,0s-.07,0-.16,0l-.14.12L27.74,7a.88.88,0,0,1-.27.22.2.2,0,0,0-.15.11.38.38,0,0,0-.22.16.6.6,0,0,1-.16.16.69.69,0,0,0-.13.11l-.07.06a.84.84,0,0,0-.11.18.55.55,0,0,0-.07.21s0,0,.05,0a.75.75,0,0,0,.25-.09A1.2,1.2,0,0,0,27.11,8l.07,0h.26a.24.24,0,0,1,.14-.12.23.23,0,0,0,.16-.11.66.66,0,0,1,.3-.19l.08-.13Z"/>
    </g>
  </g>
</svg>